<svg width="23" height="21" viewBox="0 0 23 21" fill="none" xmlns="http://www.w3.org/2000/svg">
<g clip-path="url(#clip0_72_90)">
<path d="M0.9646 1.09484C1.11644 0.702021 1.39998 0.555935 1.82099 0.561686C3.03339 0.578365 4.24579 0.567438 5.45819 0.568013C5.93671 0.568013 6.12708 0.708347 6.27374 1.16789C6.48942 1.8431 6.71085 2.51717 6.91387 3.19641C6.97196 3.39139 7.05536 3.4581 7.26701 3.4581C11.9521 3.4512 16.6372 3.45523 21.3223 3.45005C21.9377 3.44948 22.4295 3.66285 22.7631 4.18623C23.0437 4.62737 23.0575 5.09726 22.8988 5.59016C22.3208 7.39035 21.7508 9.19285 21.1786 10.9948C21.109 11.2133 21.0434 11.4325 20.9715 11.6504C20.7345 12.3694 20.1836 12.7725 19.4226 12.7858C19.3076 12.7875 19.1932 12.7858 19.0781 12.7858C15.7849 12.7858 12.4916 12.7835 9.19834 12.7909C8.96023 12.7909 8.70487 12.8243 8.48804 12.9157C7.94395 13.1447 7.65868 13.7445 7.77716 14.3174C7.89507 14.8879 8.38624 15.3026 8.98381 15.3354C9.05513 15.3394 9.12702 15.3371 9.19891 15.3371C12.4778 15.3371 15.7567 15.3371 19.0356 15.3382C19.1638 15.3382 19.2973 15.3377 19.4186 15.3716C19.7344 15.4602 19.9397 15.7857 19.8977 16.0997C19.8506 16.4529 19.5762 16.7025 19.2029 16.7088C18.7089 16.7174 18.2143 16.7111 17.7093 16.7301C18.2402 16.9251 18.6606 17.2437 18.9148 17.7515C19.1684 18.2588 19.1955 18.7833 18.9982 19.3148C18.6922 20.139 17.8755 20.6336 16.9674 20.5525C16.1311 20.4777 15.4197 19.7996 15.2707 18.9346C15.1085 17.9971 15.5968 17.2282 16.6953 16.7255H11.1205C12.2863 17.2943 12.7429 18.0886 12.4997 19.0974C12.2886 19.9722 11.484 20.5795 10.5637 20.5594C9.66823 20.5398 8.88201 19.8807 8.71752 19.0105C8.52887 18.0115 9.01027 17.2161 10.0898 16.7105C10.011 16.7105 9.93222 16.714 9.854 16.7105C9.38238 16.6875 8.90099 16.7163 8.44145 16.6283C7.34408 16.4195 6.49862 15.4504 6.39222 14.3588C6.27777 13.1803 6.89662 12.0944 7.95085 11.6412C8.09004 11.5814 8.12857 11.5302 8.07854 11.3738C7.09274 8.29045 6.11327 5.20539 5.13783 2.1186C5.09125 1.97194 5.01935 1.93973 4.87787 1.94088C3.88057 1.94663 2.88327 1.93225 1.88598 1.9495C1.46325 1.95698 1.14807 1.8316 0.9646 1.4382V1.09369L0.9646 1.09484ZM7.47751 4.82924C7.47119 4.86778 7.46313 4.88331 7.46716 4.89538C7.52467 5.08691 7.57816 5.28073 7.64373 5.46938C7.79154 5.89326 7.66846 5.82079 8.11535 5.82079C12.3242 5.82309 16.5331 5.82251 20.742 5.82136C20.9485 5.82136 21.2085 5.88348 21.3465 5.7834C21.4845 5.68333 21.5047 5.41646 21.5691 5.22091C21.6772 4.89251 21.6289 4.82924 21.2769 4.82924C16.7528 4.82924 12.2282 4.82924 7.70412 4.82924H7.47751Z" fill="white"/>
</g>
<defs>
<clipPath id="clip0_72_90">
<rect width="22.0354" height="20" fill="white" transform="translate(0.9646 0.561523)"/>
</clipPath>
</defs>
</svg>
