<svg width="115" height="115" viewBox="0 0 115 115" fill="none" xmlns="http://www.w3.org/2000/svg">
<g id="Black friday" clip-path="url(#clip0_58_825)">
<path id="Vector" d="M18.5278 46.8628L11.9574 44.6167L12.8949 41.8769C13.1362 41.1682 13.4693 40.6641 13.894 40.3647C14.3197 40.0611 14.8048 40.003 15.3493 40.1905C15.7053 40.3138 15.9789 40.5012 16.1659 40.7516C16.3529 41.002 16.4574 41.2986 16.4763 41.6363C16.4952 41.9741 16.443 42.3298 16.3166 42.6983L16.1872 42.4666C16.3426 42.0164 16.5391 41.6518 16.7798 41.3781C17.0205 41.1044 17.295 40.9278 17.5991 40.8473C17.9073 40.7679 18.2484 40.7898 18.6211 40.9172C19.1698 41.1058 19.5286 41.4518 19.6977 41.9554C19.8667 42.4589 19.8103 43.12 19.5305 43.9303L18.5288 46.8586L18.5278 46.8628ZM18.2768 46.2413L19.1117 43.7915C19.3251 43.1602 19.382 42.6414 19.2823 42.2349C19.1827 41.8284 18.892 41.548 18.4135 41.3812C17.9423 41.2206 17.544 41.269 17.2133 41.5294C16.8826 41.7898 16.6132 42.2341 16.3956 42.8643L15.5379 45.3707L15.1243 45.2288L15.9084 42.9308C16.1021 42.3612 16.1445 41.8832 16.0313 41.4956C15.9181 41.1079 15.6422 40.8401 15.2045 40.6878C14.7741 40.5417 14.3946 40.5858 14.0691 40.8253C13.7436 41.0648 13.4845 41.4672 13.2907 42.0367L12.5242 44.2813L18.2674 46.2435L18.2768 46.2413Z" fill="black"/>
<path id="Vector_2" d="M21.0681 40.1436L14.9316 36.8944L15.1665 36.446L20.8986 39.4801L22.7685 35.9488L23.1729 36.1639L21.0681 40.1436Z" fill="black"/>
<path id="Vector_3" d="M23.0717 36.2334L19.4078 29.5303L19.7077 29.1246L27.1837 30.7057L26.8578 31.145L19.7438 29.6087L19.876 29.4326L23.3966 35.7983L23.0707 36.2376L23.0717 36.2334ZM22.205 34.1279L21.9632 33.7396L24.4415 30.4071L24.8832 30.5249L22.1998 34.131L22.205 34.1279Z" fill="black"/>
<path id="Vector_4" d="M29.9991 28.0964C29.6269 28.4531 29.223 28.7221 28.7843 28.8982C28.3446 29.0784 27.9014 29.1646 27.4454 29.1587C26.9935 29.1539 26.555 29.0591 26.1287 28.8785C25.7035 28.6938 25.3177 28.421 24.964 28.0541C24.6103 27.6871 24.3528 27.2905 24.184 26.8581C24.0152 26.4257 23.9416 25.9857 23.9568 25.5276C23.971 25.0737 24.0762 24.6289 24.2704 24.2016C24.4646 23.7743 24.7478 23.3822 25.1158 23.0244C25.4703 22.6855 25.8543 22.4249 26.2721 22.2437C26.6899 22.0625 27.1226 21.9827 27.5651 22.0074L27.5635 22.4644C27.1472 22.4594 26.7636 22.5381 26.4148 22.6919C26.0649 22.8499 25.7445 23.0684 25.4537 23.3475C25.1336 23.655 24.89 23.9946 24.7228 24.3664C24.5556 24.7382 24.4649 25.1244 24.4567 25.5176C24.4476 25.915 24.5137 26.2955 24.6603 26.6736C24.8038 27.0465 25.0288 27.395 25.3289 27.7088C25.6333 28.0237 25.9656 28.261 26.3353 28.4188C26.705 28.5766 27.0839 28.6611 27.4824 28.6661C27.8809 28.6711 28.2635 28.5966 28.6437 28.4417C29.0239 28.2867 29.3735 28.0576 29.6936 27.7501C29.9845 27.471 30.2167 27.1597 30.386 26.8151C30.5554 26.4705 30.6451 26.0885 30.6552 25.6691L31.1134 25.6843C31.119 26.1298 31.0232 26.5547 30.8279 26.9684C30.6326 27.3821 30.3578 27.7585 30.0085 28.0942L29.9991 28.0964Z" fill="black"/>
<path id="Vector_5" d="M32.8846 25.5082L28.9676 19.7775L29.385 19.4896L33.302 25.2203L32.8846 25.5082ZM32.2546 23.8119L31.8795 23.2976L32.9634 17.0456L33.4705 16.6999L32.7257 21.0904L32.6632 21.5057L32.2588 23.813L32.2546 23.8119ZM37.0514 22.6586L32.4581 21.4729L32.537 20.9728L37.5596 22.3088L37.0525 22.6545L37.0514 22.6586Z" fill="black"/>
<path id="Vector_6" d="M41.1896 20.6097L40.7206 20.8005L38.1244 14.3607L42.4299 12.6244L42.6007 13.0484L38.7642 14.5939L41.1896 20.6097ZM39.8172 17.367L43.3037 15.9617L43.4746 16.3858L39.988 17.791L39.8172 17.367Z" fill="black"/>
<path id="Vector_7" d="M46.3176 18.6904L44.7704 11.923L47.1982 11.3714C47.7678 11.2409 48.2739 11.2236 48.7198 11.3068C49.1656 11.3901 49.5396 11.5845 49.8376 11.8711C50.1356 12.1577 50.3377 12.545 50.4491 13.0299C50.5552 13.5002 50.5378 13.9311 50.3979 14.3185C50.258 14.7059 50.0028 15.0382 49.6366 15.3165C49.2715 15.5906 48.8078 15.7961 48.2382 15.9265L46.0831 16.4166L46.2506 16.1337L46.8109 18.5811L46.3166 18.6946L46.3176 18.6904ZM51.0185 17.6201L48.6961 15.5643L49.2563 15.4359L51.5787 17.4917L51.0185 17.6201ZM46.2612 16.163L45.9865 15.9798L48.1416 15.4897C48.871 15.3232 49.3857 15.0371 49.6908 14.6282C49.9959 14.2194 50.0822 13.7255 49.9453 13.1455C49.8106 12.5572 49.5205 12.1482 49.0711 11.9175C48.6216 11.6868 48.0306 11.6521 47.3011 11.8186L45.1451 12.3129L45.3104 12.0206L46.2559 16.1661L46.2612 16.163Z" fill="black"/>
<path id="Vector_8" d="M53.1284 17.4015L52.406 10.4955L52.9078 10.4416L53.6303 17.3476L53.1284 17.4015Z" fill="black"/>
<path id="Vector_9" d="M55.8164 17.0922L56.0132 10.1508L58.761 10.2287C59.4932 10.2494 60.1359 10.4167 60.6808 10.7287C61.2257 11.0407 61.6455 11.4639 61.9411 11.9942C62.2368 12.5245 62.3726 13.1264 62.3529 13.801C62.3331 14.4756 62.1646 15.0691 61.8379 15.5836C61.5112 16.0981 61.0711 16.4959 60.5094 16.7749C59.9465 17.058 59.2975 17.1866 58.5653 17.166L55.8174 17.088L55.8164 17.0922ZM56.3337 16.6513L58.5345 16.7143C59.1872 16.7331 59.761 16.6215 60.2518 16.3783C60.7426 16.1351 61.1253 15.7898 61.4041 15.3434C61.6829 14.897 61.8277 14.3821 61.8435 13.7953C61.8594 13.2086 61.7447 12.6829 61.49 12.2205C61.2396 11.7591 60.8765 11.3942 60.4018 11.1218C59.9271 10.8493 59.3629 10.7058 58.706 10.6859L56.5053 10.623L56.3337 16.6513Z" fill="black"/>
<path id="Vector_10" d="M62.4607 17.3086L67.0079 11.1688L67.5019 11.2729L69.2051 18.7227L68.6734 18.6093L67.0801 11.5064L67.2957 11.5506L62.9976 17.4188L62.4659 17.3054L62.4607 17.3086ZM64.0052 15.6377L64.2591 15.2562L68.3263 16.1079L68.4062 16.5584L64.0094 15.6387L64.0052 15.6377Z" fill="black"/>
<path id="Vector_11" d="M71.3038 19.5603L72.1714 17.194L72.1695 17.5444L71.0648 12.0806L71.5863 12.2714L72.5878 17.2345L72.3271 17.1392L76.2985 14.0016L76.7917 14.1809L72.4218 17.6377L72.6469 17.3734L71.7792 19.7397L71.3028 19.5645L71.3038 19.5603Z" fill="black"/>
<path id="Vector_12" d="M85.3291 28.0668L90.3944 23.3204L92.374 25.4338C92.8841 25.977 93.1745 26.5104 93.2431 27.0247C93.3107 27.5432 93.1323 27.9966 92.7152 28.3912C92.4389 28.6472 92.1476 28.8019 91.8392 28.8458C91.5308 28.8896 91.218 28.8436 90.91 28.7055C90.6031 28.5632 90.3127 28.354 90.0461 28.0662L90.3138 28.0611C90.6413 28.4083 90.8673 28.7527 90.996 29.0953C91.1247 29.4379 91.152 29.7599 91.0798 30.0707C91.0034 30.3805 90.8255 30.6697 90.5367 30.9405C90.1102 31.3371 89.6369 31.4914 89.1168 31.4031C88.5925 31.3138 88.037 30.9548 87.4493 30.3303L85.3322 28.072L85.3291 28.0668ZM85.9956 28.1378L87.7683 30.027C88.2259 30.5129 88.6557 30.8054 89.0618 30.9055C89.468 31.0056 89.8535 30.8831 90.2226 30.5389C90.5855 30.202 90.7275 29.824 90.6561 29.4112C90.5847 28.9983 90.3175 28.5505 89.8599 28.0647L88.0483 26.1348L88.3664 25.8357L90.0299 27.6092C90.4414 28.0482 90.8439 28.3073 91.2405 28.3917C91.633 28.4752 91.9997 28.3569 92.3397 28.041C92.6744 27.7283 92.8102 27.3754 92.7535 26.9751C92.6967 26.5747 92.4621 26.1572 92.0507 25.7182L90.4291 23.9906L86.0029 28.1441L85.9956 28.1378Z" fill="black"/>
<path id="Vector_13" d="M90.0733 33.4702L95.8181 29.5708L96.1009 29.9913L90.7348 33.6333L92.9798 36.9401L92.601 37.1975L90.0723 33.4744L90.0733 33.4702Z" fill="black"/>
<path id="Vector_14" d="M92.588 37.0697L100.228 36.9593L100.448 37.4177L95.5621 43.2919L95.3283 42.799L100.007 37.2246L100.101 37.4209L92.825 37.5678L92.5911 37.0749L92.588 37.0697ZM94.8541 37.282L95.3111 37.2481L97.1046 40.9987L96.7909 41.3344L94.8541 37.282Z" fill="black"/>
<path id="Vector_15" d="M96.5606 46.9872C96.4167 46.4899 96.3712 46.0079 96.4156 45.5393C96.4612 45.0664 96.5946 44.6331 96.8088 44.2329C97.0229 43.8327 97.3115 43.4909 97.6724 43.1979C98.0323 42.9092 98.4583 42.6945 98.9463 42.5527C99.4343 42.411 99.9111 42.3687 100.369 42.4195C100.827 42.4745 101.255 42.6112 101.652 42.8379C102.049 43.0646 102.389 43.3615 102.679 43.735C102.969 44.1084 103.182 44.5386 103.327 45.0317C103.465 45.5008 103.515 45.966 103.478 46.419C103.446 46.8729 103.313 47.2885 103.089 47.6731L102.685 47.4579C102.881 47.0933 102.992 46.7165 103.015 46.3358C103.038 45.955 102.994 45.5714 102.882 45.1796C102.761 44.7543 102.573 44.3795 102.32 44.0551C102.067 43.7307 101.77 43.4754 101.427 43.2799C101.084 43.0886 100.71 42.9654 100.312 42.9206C99.9148 42.8759 99.506 42.9128 99.0859 43.0313C98.6659 43.1497 98.2994 43.3392 97.9885 43.5912C97.6777 43.8431 97.4266 44.1409 97.2385 44.4898C97.0503 44.8386 96.9354 45.2145 96.8928 45.6214C96.8503 46.0283 96.8945 46.4434 97.0152 46.8728C97.1283 47.2604 97.2958 47.6081 97.5165 47.9201C97.7423 48.2289 98.0381 48.4883 98.4059 48.69L98.1792 49.0871C97.7853 48.8834 97.4465 48.6001 97.1765 48.236C96.9023 47.8708 96.6991 47.4521 96.5616 46.983L96.5606 46.9872Z" fill="black"/>
<path id="Vector_16" d="M98.0798 55.7606L101.272 52.2532L101.677 52.5573L98.1509 56.3732L98.0798 55.7606ZM99.2983 50.9806L99.9255 50.8865L104.952 54.7637L105.023 55.3763L101.49 52.6666L101.152 52.4146L99.3035 50.9774L99.2983 50.9806ZM97.5038 50.7469L104.4 49.9602L104.458 50.463L97.5619 51.2497L97.5038 50.7469Z" fill="black"/>
<path id="Vector_17" d="M101.459 60.6836L101.065 64.4235L100.611 64.3738L101.005 60.6339L101.459 60.6836ZM97.9507 60.3739L98.0034 59.8718L104.908 60.6014L104.423 65.2158L103.969 65.1661L104.401 61.0537L97.9507 60.3739Z" fill="black"/>
<path id="Vector_18" d="M95.9915 70.4642L98.8944 69.3724L98.7446 69.9261L95.8427 71.0137L95.9925 70.46L95.9915 70.4642ZM97.2417 65.8075L103.949 67.6076L103.303 70.0107C103.151 70.5728 102.932 71.0295 102.649 71.386C102.361 71.7414 102.022 71.982 101.627 72.1066C101.232 72.2313 100.796 72.2348 100.317 72.1036C99.8506 71.9796 99.4776 71.7633 99.2025 71.4556C98.9275 71.148 98.7495 70.7711 98.6748 70.3175C98.599 69.868 98.6402 69.3586 98.7921 68.7965L99.3677 66.6602L99.538 66.9421L97.1136 66.291L97.2427 65.8033L97.2417 65.8075ZM99.5035 66.938L99.7916 66.7781L99.2161 68.9144C99.0208 69.6345 99.0353 70.2243 99.2544 70.6868C99.4745 71.1452 99.8698 71.4514 100.444 71.6064C101.023 71.7624 101.524 71.6949 101.942 71.4071C102.359 71.1192 102.662 70.612 102.857 69.8919L103.432 67.7556L103.611 68.0395L99.4993 66.9369L99.5035 66.938Z" fill="black"/>
<path id="Vector_19" d="M95.1989 72.4352L101.643 75.0142L101.456 75.4833L95.0122 72.9043L95.1989 72.4352Z" fill="black"/>
<path id="Vector_20" d="M94.2188 74.9519L100.267 78.3615L98.9173 80.7554C98.5554 81.3945 98.1104 81.8843 97.5792 82.2196C97.0479 82.555 96.4806 82.7304 95.873 82.7449C95.2664 82.7552 94.6707 82.595 94.0818 82.2633C93.493 81.9316 93.0481 81.5022 92.7462 80.9793C92.4401 80.4553 92.2981 79.8785 92.3117 79.2468C92.3253 78.6151 92.5125 77.9818 92.8744 77.3427L94.2241 74.9488L94.2188 74.9519ZM94.3664 75.6145L93.285 77.5328C92.9626 78.1017 92.7982 78.6606 92.7832 79.2076C92.7725 79.7556 92.8986 80.253 93.1595 80.7081C93.4256 81.1601 93.8138 81.5311 94.3241 81.8213C94.8344 82.1114 95.3557 82.2488 95.8818 82.2408C96.4078 82.2328 96.8979 82.0827 97.3613 81.7884C97.8247 81.4941 98.2155 81.062 98.5378 80.4931L99.6192 78.5748L94.3664 75.6145Z" fill="black"/>
<path id="Vector_21" d="M90.9349 80.7234L94.2417 87.6138L93.9188 88.0049L86.5345 86.0334L86.8824 85.613L93.9088 87.5229L93.7692 87.6927L90.5849 81.1523L90.9328 80.7318L90.9349 80.7234ZM91.6929 82.8732L91.9139 83.2741L89.2605 86.4701L88.8249 86.3272L91.694 82.869L91.6929 82.8732Z" fill="black"/>
<path id="Vector_22" d="M84.8146 87.4804L86.4973 89.3563L86.1914 89.1921L91.5338 90.7801L91.123 91.1495L86.2684 89.7084L86.4738 89.5237L87.3866 94.5049L86.9934 94.8565L85.9912 89.3736L86.1198 89.6985L84.4371 87.8226L84.8135 87.4846L84.8146 87.4804Z" fill="black"/>
</g>
<defs>
<clipPath id="clip0_58_825">
<rect width="94.8202" height="94.8202" fill="white" transform="translate(0.208832 92.2715) rotate(-76.1506)"/>
</clipPath>
</defs>
</svg>
