<svg width="41" height="42" viewBox="0 0 41 42" fill="none" xmlns="http://www.w3.org/2000/svg">
<g id="Layer_1" clip-path="url(#clip0_76_212)">
<path id="Vector" d="M17.1122 14.8673L26.884 24.6339C27.1505 24.9004 27.5835 24.9004 27.85 24.6339L37.6218 14.8673C37.8148 14.6743 37.9967 14.4718 38.1684 14.2591C40.9419 10.8484 40.426 5.83444 37.0144 3.06095C34.235 0.800809 30.2887 0.675246 27.3717 2.75515C23.8021 0.189222 18.8283 1.00239 16.2615 4.57198C14.1594 7.49666 14.2824 11.4686 16.5622 14.2566C16.7347 14.4693 16.9175 14.6734 17.1114 14.8665L17.1122 14.8673ZM18.0783 4.57027C20.4777 2.17005 24.3069 1.98298 26.9292 4.13635C26.948 4.15172 26.9719 4.156 26.9916 4.16966C27.0292 4.19443 27.0702 4.21579 27.112 4.23287C27.1522 4.2491 27.1932 4.26191 27.2359 4.2696C27.3632 4.29437 27.4956 4.28156 27.616 4.23287C27.6578 4.21579 27.698 4.19443 27.7364 4.16966C27.7578 4.15941 27.7783 4.14831 27.7988 4.13635C30.6133 1.8224 34.7714 2.22898 37.0853 5.04348C39.0798 7.46933 39.0875 10.9646 37.1041 13.3998C36.9632 13.5749 36.812 13.7424 36.6531 13.9012L27.3649 23.1852L18.0792 13.9012C17.9194 13.7415 17.7674 13.5724 17.6265 13.3964C15.4833 10.7767 15.6789 6.95682 18.0792 4.57027H18.0783Z" fill="black"/>
<path id="Vector_2" d="M5.53314 22.3271H1.50145C1.12391 22.3271 0.818115 22.6329 0.818115 23.0105C0.818115 23.388 1.12391 23.6938 1.50145 23.6938H5.53314C6.0371 23.6938 6.4454 24.103 6.44625 24.6069V38.8204C6.44625 39.3252 6.03796 39.7343 5.53314 39.7352H1.50145C1.12391 39.7352 0.818115 40.041 0.818115 40.4185C0.818115 40.7961 1.12391 41.1018 1.50145 41.1018H5.53314C6.79134 41.1001 7.81122 40.0803 7.81293 38.8221V24.6086C7.81293 23.3496 6.79219 22.3289 5.53314 22.3271Z" fill="black"/>
<path id="Vector_3" d="M9.88683 26.5064H14.1594C14.2961 26.5064 14.4327 26.4996 14.5694 26.4927C14.8325 26.4569 15.099 26.4757 15.3544 26.5466C15.497 26.6209 15.6328 26.7088 15.7593 26.8096C15.8464 26.8729 15.9335 26.9361 16.0189 26.9924L19.9823 29.6156C20.5614 30.0939 21.284 30.3638 22.034 30.3826H22.0648C22.4551 30.3784 22.8455 30.3826 23.2375 30.3826H25.8291C26.1579 30.3459 26.4911 30.3886 26.8003 30.5082C27.001 30.6039 27.1975 30.7132 27.3931 30.8183L27.7108 30.9908C28.0448 31.1676 28.4582 31.0404 28.635 30.7064C28.8119 30.3724 28.6846 29.959 28.3506 29.7822L28.0482 29.619C27.8304 29.5003 27.6117 29.3807 27.3888 29.2773C26.8908 29.0595 26.3467 28.9698 25.8052 29.016H22.0528C21.5702 28.9929 21.1089 28.805 20.7468 28.4847L16.7723 25.8521C16.704 25.8068 16.6356 25.7556 16.5673 25.7035C16.3606 25.5429 16.1359 25.4054 15.8993 25.2935C15.4526 25.1286 14.9726 25.0723 14.4994 25.1286C14.3866 25.1338 14.2739 25.1406 14.1628 25.1406H9.88768C9.51014 25.1406 9.20435 25.4464 9.20435 25.8239C9.20435 26.2015 9.51014 26.5073 9.88768 26.5073V26.5047L9.88683 26.5064Z" fill="black"/>
<path id="Vector_4" d="M37.4321 27.7227C35.6119 28.447 33.8412 29.2901 32.1311 30.2468L31.7664 30.4518C30.8311 31.0283 29.8257 31.4836 28.776 31.8073C27.8406 32.0738 26.8771 32.2319 25.9059 32.2771C23.1188 32.3925 20.3291 32.1277 17.6128 31.4896C17.2446 31.4076 16.8791 31.6408 16.7979 32.0089C16.7159 32.3771 16.9491 32.7427 17.3173 32.8238C20.1582 33.4866 23.0752 33.7608 25.9905 33.6395C27.0642 33.5874 28.1285 33.4115 29.1629 33.1151C30.3143 32.7623 31.4162 32.2652 32.4429 31.6374L32.8017 31.4324C34.4716 30.4996 36.2004 29.6779 37.978 28.9724C38.493 28.7255 39.1114 28.9433 39.3574 29.4592C39.5872 29.9401 39.4147 30.5175 38.9577 30.7926C37.0725 32.1593 35.1096 33.4619 33.1254 34.6637C31.505 35.6443 29.8334 36.5813 28.1558 37.4483C26.6704 37.8822 25.1244 38.0727 23.5775 38.0112C22.0682 37.9497 20.5776 37.6516 19.1606 37.128C18.0911 36.8025 17.0499 36.3917 16.0462 35.898C15.4671 35.6178 14.9034 35.3069 14.3567 34.9669C13.2557 34.381 12.0103 34.1239 10.7675 34.2255C10.4856 34.2255 10.202 34.2195 9.92012 34.2067C9.54258 34.1896 9.22312 34.4818 9.20603 34.8593C9.18895 35.2368 9.48108 35.5563 9.85862 35.5734C10.1559 35.5862 10.4548 35.5896 10.7529 35.593C11.7421 35.5025 12.7372 35.687 13.6289 36.1243C14.2149 36.4899 14.8205 36.8248 15.4415 37.1271C16.4981 37.6482 17.5949 38.0821 18.7215 38.4255C20.2607 38.9918 21.8794 39.3138 23.5177 39.3787C23.7261 39.3881 23.9345 39.3924 24.1429 39.3915C25.6531 39.3915 27.1556 39.1729 28.6034 38.7424C28.6444 38.7304 28.6846 38.7142 28.7221 38.6945C30.4467 37.8062 32.1653 36.8427 33.8301 35.8348C35.8477 34.6133 37.8413 33.2893 39.7299 31.9192C40.8394 31.1941 41.1512 29.7069 40.426 28.5974C39.7794 27.6074 38.5075 27.2358 37.4296 27.7227L37.4313 27.7201L37.4321 27.7227Z" fill="black"/>
</g>
<defs>
<clipPath id="clip0_76_212">
<rect width="40" height="40.3347" fill="white" transform="translate(0.818115 0.767578)"/>
</clipPath>
</defs>
</svg>
