<svg width="41" height="41" viewBox="0 0 41 41" fill="none" xmlns="http://www.w3.org/2000/svg">
<g clip-path="url(#clip0_76_219)">
<path d="M15.7221 16.6434H23.6385C24.0699 16.6434 24.42 16.2932 24.42 15.8618V11.8626C24.42 11.4312 24.0699 11.0811 23.6385 11.0811H15.7221C15.2907 11.0811 14.9405 11.4312 14.9405 11.8626V15.8618C14.9405 16.2932 15.2907 16.6434 15.7221 16.6434ZM16.5036 12.6442H22.8569V15.0803H16.5036V12.6442Z" fill="black"/>
<path d="M37.1343 22.7914V16.7726C38.2051 15.6362 38.7561 14.342 38.7561 12.9203V8.47172C38.7561 7.28298 37.7893 6.31619 36.6005 6.31619H30.2504V4.37012C30.2504 2.43421 28.6756 0.859375 26.7397 0.859375H12.6201C10.6842 0.859375 9.10933 2.43421 9.10933 4.37012V6.31619H2.7592C1.57123 6.31619 0.603668 7.28298 0.603668 8.47172V12.9203C0.603668 14.3404 1.15388 15.6347 2.22305 16.7703V33.3033C2.22305 34.4928 3.18983 35.4604 4.37858 35.4604H30.3317V40.0778C30.3317 40.3545 30.4778 40.6108 30.7162 40.7507C30.9546 40.8914 31.2492 40.8953 31.4915 40.7617L34.6717 39.004L37.8495 40.7617C37.9675 40.8266 38.0972 40.8594 38.2277 40.8594C38.3653 40.8594 38.5021 40.8234 38.6248 40.7507C38.8631 40.6101 39.0093 40.3545 39.0093 40.0778V32.267C40.0073 31.2025 40.6201 29.7738 40.6201 28.2029C40.6201 25.8012 39.1891 23.7292 37.1351 22.7906L37.1343 22.7914ZM10.6724 4.3709C10.6724 3.29705 11.5462 2.42327 12.6201 2.42327H26.7397C27.8135 2.42327 28.6873 3.29705 28.6873 4.3709V6.31698H10.6717V4.3709H10.6724ZM3.50949 15.8496C2.70527 15.0493 2.16678 14.0809 2.16678 12.9211V8.47251C2.16678 8.14582 2.43251 7.88009 2.7592 7.88009H36.6013C36.928 7.88009 37.1937 8.14582 37.1937 8.47251V12.9211C37.1937 15.5839 34.3567 17.24 31.9761 18.1607C28.7459 19.4096 24.3794 20.0974 19.6807 20.0974C14.9819 20.0974 10.6154 19.4096 7.38522 18.1607C6.07065 17.6519 4.61695 16.9188 3.57827 15.9153C3.55717 15.8926 3.5345 15.8699 3.51027 15.8496H3.50949ZM28.8358 29.3541H3.78616V18.0778C4.63493 18.6491 5.64704 19.165 6.82016 19.6183C10.2262 20.9352 14.7928 21.6605 19.6799 21.6605C24.5669 21.6605 29.1336 20.9352 32.5396 19.6183C33.7119 19.165 34.7232 18.6499 35.5712 18.0794V22.324C35.2774 22.2795 34.9772 22.256 34.6709 22.256C31.3915 22.256 28.7225 24.9242 28.7225 28.2044C28.7225 28.5983 28.7615 28.9821 28.835 29.3549L28.8358 29.3541ZM30.3317 33.8981H4.37858C4.05736 33.8981 3.78616 33.6261 3.78616 33.3041V30.9172H29.3805C29.6345 31.4104 29.955 31.8637 30.3317 32.2654V33.8981ZM37.4454 38.7531L35.0492 37.4276C34.8139 37.297 34.5279 37.297 34.2926 37.4276L31.894 38.7539V33.462C32.7232 33.902 33.6681 34.1521 34.6709 34.1521C35.6736 34.1521 36.6162 33.902 37.4454 33.4627V38.7531ZM34.6709 32.5882C32.2527 32.5882 30.2856 30.621 30.2856 28.2029C30.2856 25.7847 32.2527 23.8176 34.6709 23.8176C37.089 23.8176 39.0562 25.7847 39.0562 28.2029C39.0562 30.621 37.089 32.5882 34.6709 32.5882Z" fill="black"/>
</g>
<defs>
<clipPath id="clip0_76_219">
<rect width="40.0156" height="40" fill="white" transform="translate(0.603668 0.860352)"/>
</clipPath>
</defs>
</svg>
