<svg width="66" height="44" viewBox="0 0 66 44" fill="none" xmlns="http://www.w3.org/2000/svg">
<g id="Layer_1">
<path id="Vector" d="M34.3387 3.70769C34.8026 3.70769 35.3854 3.83258 35.9001 3.94201L35.9108 3.94459C36.4215 4.0566 36.8372 4.13771 37.1968 4.16604C37.2329 4.16861 37.2677 4.1699 37.3038 4.1699C37.4401 4.1699 37.5765 4.1493 37.7075 4.10939C38.5377 3.85704 39.1901 3.73344 39.7048 3.73344C40.0256 3.73344 40.2836 3.78365 40.452 3.87893C40.5082 3.91111 40.674 4.00381 40.7542 4.31152C40.8798 5.17544 41.3384 5.67112 41.6779 6.03677C41.9052 6.28011 42.0669 6.46809 42.0857 6.65992C42.1498 7.32427 42.7287 7.82897 43.4158 7.82897C43.4345 7.82897 43.4546 7.82897 43.4733 7.82897C43.5268 7.8264 43.5776 7.82511 43.6284 7.82511C44.3235 7.82511 44.7994 7.98605 45.3235 8.83708C45.4318 9.01218 45.5815 9.16153 45.762 9.26968C46.1537 9.50658 46.1764 9.68555 46.1871 10.216C46.1871 10.2224 46.1871 10.2289 46.1871 10.2353L46.1898 10.2971C46.2031 10.6705 46.2165 11.0941 46.4772 11.5383C46.7165 11.949 47.1657 12.1949 47.6416 12.1949C47.7271 12.1949 47.8127 12.1872 47.8982 12.1704C47.925 12.1653 47.9531 12.1627 47.9878 12.1627C48.175 12.1627 48.453 12.2399 48.6749 12.3017C48.6776 12.3017 48.6803 12.303 48.6816 12.3043C49.092 12.4163 49.4931 12.5168 49.8982 12.5168C50.4048 12.5168 50.8527 12.3623 51.2296 12.0571C51.874 11.6232 52.2323 11.5305 52.4194 11.5305C52.4555 11.5305 52.4889 11.5344 52.5237 11.5408C52.5277 11.5408 52.5331 11.5421 52.5371 11.5434C52.8472 11.6026 53.1039 11.9606 53.4902 12.5425C53.4929 12.5477 53.4969 12.5515 53.4996 12.5567L53.5183 12.5837C53.8245 13.033 54.172 13.5429 54.6613 13.933C54.7723 14.0218 54.8993 14.0927 55.0343 14.1429C55.6533 14.372 56.2241 14.412 56.7281 14.4467L56.8096 14.4519C56.8096 14.4519 56.8216 14.4519 56.827 14.4519C57.3684 14.4828 57.7855 14.5188 58.2133 14.6991C58.3831 14.7699 58.5649 14.8059 58.748 14.8059C58.8135 14.8059 58.8777 14.8008 58.9432 14.7918C58.982 14.7866 59.0194 14.784 59.0568 14.784C59.3162 14.784 59.5715 14.927 59.8656 15.0918L59.9097 15.1162C59.9458 15.1381 59.9926 15.1651 60.0501 15.1922C60.2386 15.2836 60.4431 15.3274 60.6477 15.3274C60.9003 15.3274 61.153 15.2578 61.3736 15.1214C61.4926 15.048 61.5995 15.0119 61.7025 15.0119C61.7359 15.0119 61.7706 15.0158 61.8054 15.0235C61.8081 15.0235 61.8107 15.0235 61.8134 15.0248C62.1236 15.0905 62.4725 15.4278 62.7011 15.8836C62.7786 16.0394 62.8882 16.1771 63.0233 16.2917C63.296 16.5222 63.4216 16.8698 63.3962 17.3281C63.3668 17.8959 63.0928 18.5049 62.7318 18.8088C62.2265 19.2336 62.1262 19.9546 62.4979 20.4928C63.1396 21.4211 62.9898 23.1644 62.1182 24.9527C61.8976 25.1651 61.6182 25.2141 61.1677 25.2797C60.5728 25.3673 59.6745 25.4986 59.0622 26.4578C58.9459 26.6406 58.8777 26.8479 58.8657 27.0616C58.8296 27.6783 58.5341 28.232 58.093 28.5075C58.089 28.5101 58.0863 28.5114 58.0823 28.5139C57.8858 28.6388 57.6812 28.7006 57.4566 28.7006C57.3176 28.7006 57.1719 28.6762 57.0235 28.6285C56.8858 28.5847 56.7441 28.5629 56.6011 28.5629C56.4808 28.5629 56.3604 28.5783 56.2428 28.6092C56.2415 28.6092 56.2254 28.6131 56.1893 28.6131C56.1733 28.6131 56.1572 28.6131 56.1372 28.6105C56.1038 28.6079 56.069 28.6066 56.0343 28.6066H55.9393C55.4287 28.6066 54.9621 28.8873 54.7375 29.3289C54.7001 29.4023 54.6065 29.4564 54.5691 29.4602C54.4087 29.4667 54.2496 29.5014 54.1025 29.5632C53.652 29.7499 53.3686 30.0667 53.0945 30.3744C53.0945 30.3757 53.0892 30.3808 53.0879 30.3821C52.7483 30.7671 52.5905 30.9125 52.2697 30.9125C52.2202 30.9125 52.1654 30.9087 52.1093 30.9022C52.0518 30.8958 51.9957 30.8919 51.9382 30.8919C51.6895 30.8919 51.4449 30.9589 51.2323 31.0864C50.7778 31.358 50.5505 31.358 50.2618 31.358C49.2886 31.358 48.6977 31.7404 47.8327 32.93C47.4611 33.4425 47.5239 34.1364 47.9825 34.5793C48.0199 34.6154 48.0533 34.6502 48.0881 34.6862C48.1415 34.7416 48.1964 34.7969 48.2538 34.8523C48.5078 35.0969 48.8487 35.2295 49.199 35.2295C49.3113 35.2295 49.4236 35.2154 49.5345 35.1883C50.7831 34.8768 51.755 34.7248 52.5063 34.7248C53.3659 34.7248 53.6614 34.9218 53.7483 35.0068C53.7496 35.0081 53.7523 35.0107 53.7536 35.0119C53.918 35.1703 53.9341 35.4806 53.8017 35.9364C53.7924 35.9673 53.7843 35.9995 53.7777 36.0316L53.7549 36.1398L53.7496 36.1642C53.4501 37.538 53.2296 37.9899 52.4328 38.1341C52.382 38.1431 52.3325 38.1547 52.2831 38.1702C52.1654 38.2049 51.9957 38.223 51.7764 38.223C51.5572 38.223 51.3179 38.2049 51.0732 38.1856L51.0331 38.1818C50.8179 38.1624 50.5947 38.1431 50.354 38.1431C50.2872 38.1431 50.2217 38.1444 50.1575 38.1483C49.7351 38.1689 49.346 38.3813 49.1121 38.7199C48.8233 39.1384 48.4865 39.3238 48.0212 39.3238C47.9838 39.3238 47.9464 39.3238 47.9089 39.3199C47.8782 39.3173 47.8474 39.3173 47.8167 39.3173C47.4397 39.3173 47.0788 39.4705 46.8248 39.7422C46.1443 40.4684 44.7714 40.9769 43.4867 40.9769C42.8744 40.9769 42.3383 40.8572 41.9787 40.6396C41.976 40.6383 41.9747 40.637 41.972 40.6357C41.5135 40.3628 41.3959 39.9637 41.5924 39.3431C41.71 38.9697 41.6458 38.5654 41.4172 38.2436C41.1886 37.9217 40.821 37.717 40.4173 37.6861C39.4588 37.614 38.7543 37.3372 38.5738 36.9599C38.4602 36.7256 38.5684 36.3303 38.8679 35.8746C39.1045 35.5166 39.1419 35.0686 38.9682 34.6785C38.7944 34.2884 38.4334 34.0051 38.0016 33.9227C37.1968 33.7682 36.5658 33.4051 36.13 32.8438C35.8801 32.5232 35.4884 32.3327 35.0726 32.3288C35.0579 32.3288 35.0419 32.3275 35.0258 32.3262C34.9804 32.3236 34.9242 32.3198 34.8654 32.3185H34.8627C34.717 32.3095 34.5673 32.3005 34.4523 32.2773C34.3601 32.258 34.2678 32.249 34.1769 32.249C33.6903 32.249 33.2318 32.5065 32.9965 32.9326C32.5567 33.7309 31.9257 34.4905 31.3161 35.2244L31.2813 35.2669C31.2813 35.2669 31.276 35.2746 31.272 35.2772L30.6343 36.0612C30.4765 36.2557 30.3803 36.49 30.3562 36.7346C30.3175 37.1286 30.0929 37.4595 29.7694 37.5959C29.7667 37.5959 29.764 37.5985 29.7627 37.5985C29.6571 37.6436 29.5501 37.6668 29.4445 37.6668C29.3001 37.6668 29.1544 37.6243 29.014 37.5419C28.7988 37.4144 28.5568 37.3513 28.3135 37.3513C28.0702 37.3513 27.847 37.4105 27.6384 37.5277C27.3363 37.6977 26.9566 37.7839 26.5101 37.7839C25.9767 37.7839 25.3698 37.6539 24.8498 37.4311C24.0156 37.0694 23.6052 36.5968 23.5771 36.3123C23.5664 36.2067 23.5437 36.1037 23.5063 36.0046C23.3619 35.6132 23.3966 35.4883 24.1052 34.9308C24.1105 34.9257 24.1172 34.9218 24.1225 34.9167L24.168 34.8793C24.6118 34.5188 25.1639 34.0708 25.4059 33.3369C25.6024 32.7537 25.6973 32.2683 25.7575 31.9078C25.7896 31.734 25.8698 31.2975 25.9848 31.1469C26.0743 31.0284 26.3778 30.9357 26.5489 30.8894C27.0088 30.7683 27.3671 30.4207 27.4887 29.9778C27.6104 29.5336 27.4793 29.0611 27.1425 28.7367C27.0649 28.662 26.9914 28.6066 26.9406 28.5719C26.9219 28.5564 26.9018 28.541 26.8818 28.5268C26.1452 27.9951 25.8791 27.717 25.8912 27.2548C25.9086 27.0655 25.9286 26.8093 25.9286 26.5904C25.9286 26.2492 25.7882 25.9209 25.5369 25.6801C24.9033 24.9913 23.9915 24.8883 23.3231 24.8124C22.6199 24.7313 22.1373 24.6501 21.8539 24.2703C21.6253 23.9639 21.2671 23.7695 20.8767 23.7399C20.8406 23.7373 20.8045 23.736 20.7684 23.736C20.7083 23.736 20.6481 23.7399 20.5893 23.7476C20.5746 23.7476 20.5599 23.7476 20.5452 23.7489C20.5345 23.7489 20.5224 23.7489 20.5091 23.7502C20.2604 23.5326 19.9396 23.4167 19.612 23.4167C19.4583 23.4167 19.3046 23.4425 19.1548 23.494C18.6509 23.6704 18.306 24.1197 18.2779 24.6347C18.2685 24.7995 18.2498 25.142 17.4878 25.5063C16.8167 25.8269 15.9264 25.9969 15.2085 26.1346C15.139 26.1475 15.0735 26.1604 15.008 26.172C14.8449 26.2016 14.6764 26.2325 14.5093 26.2737C14.3903 26.302 14.2767 26.3471 14.1698 26.405L14.1056 26.4398C13.1671 26.9187 12.0027 27.511 10.9988 27.511C10.3678 27.511 9.87851 27.2728 9.41463 26.741C9.22613 26.5235 8.96679 26.3728 8.6807 26.311C8.46547 26.2647 8.23687 26.2183 8.00961 26.172L7.96549 26.163C7.5377 26.0741 7.09655 25.9814 6.84255 25.8398C6.63534 25.7239 6.40406 25.666 6.17279 25.666C5.95355 25.666 5.73431 25.7175 5.53512 25.8218C5.36668 25.9093 5.18486 25.9544 4.9937 25.9544C4.8921 25.9544 4.78782 25.9415 4.68088 25.917C4.67286 25.9158 4.66617 25.9132 4.65815 25.9119C4.28918 25.8334 3.97904 25.6209 3.80792 25.3299C3.67958 25.1111 3.48574 24.9321 3.25313 24.8175C2.5152 24.4544 2.0834 23.9549 1.93501 23.2983C1.66497 22.0764 2.38017 20.6834 3.13816 19.7873C3.38414 19.4976 3.48574 19.119 3.4189 18.7508C3.30794 18.1393 3.79188 17.5972 4.54318 16.8402C4.55655 16.826 4.56992 16.8131 4.58329 16.799C4.65013 16.7256 4.72366 16.6496 4.80253 16.5685C4.88541 16.4835 4.96963 16.396 5.05519 16.3033C5.50036 15.8604 5.73965 15.3402 5.95221 14.8806L5.95622 14.8716C5.95622 14.8716 5.96023 14.8639 5.96157 14.8587C6.11397 14.5201 6.30246 14.0991 6.54042 13.9098C6.98024 13.5596 7.142 12.979 6.94147 12.464C6.74362 11.9567 6.44149 11.4996 6.17145 11.1095L6.14605 11.0709C5.70089 10.4014 5.43485 9.95978 5.4763 9.46152C5.48298 9.37783 5.48164 9.29415 5.47229 9.21175C5.38539 8.4856 5.37336 7.54186 5.80917 7.16334C6.0097 6.98824 6.36396 6.8994 6.86394 6.8994C7.26499 6.8994 7.73823 6.95476 8.3505 7.0745C8.4374 7.09124 8.52697 7.10025 8.6152 7.10025C8.7315 7.10025 8.84647 7.08608 8.9601 7.05647C9.37452 6.94961 9.8344 6.91099 10.3223 6.8685L10.3451 6.86592C10.8771 6.81829 11.4787 6.76421 12.0402 6.59941C12.214 6.54791 12.3744 6.46294 12.5134 6.35092C12.7554 6.15265 13.0174 6.05222 13.2915 6.05222C13.492 6.05222 13.6992 6.10501 13.9064 6.21059C14.6283 6.63675 15.3569 6.86979 16.0627 7.09639L16.147 7.12342C16.147 7.12342 16.151 7.12471 16.1536 7.126C16.7459 7.31269 17.417 7.52384 18.068 7.85858C18.3581 8.00665 18.6896 8.07488 19.1121 8.07488C19.7832 8.07488 20.6387 7.8985 21.39 7.72468C21.4529 7.71181 21.513 7.69765 21.5718 7.68477C21.6801 7.66031 21.7924 7.63585 21.8512 7.62683C22.0384 7.59722 22.2175 7.52899 22.3753 7.42599C22.6427 7.25346 22.918 7.17235 23.2416 7.17235C23.6212 7.17235 24.0089 7.28307 24.3725 7.40281C24.5129 7.44916 24.66 7.47234 24.807 7.47234C24.8645 7.47234 24.9206 7.46847 24.9781 7.46203C25.057 7.45174 25.1733 7.44659 25.323 7.44659C25.581 7.44659 25.9005 7.46075 26.3564 7.48135L26.5235 7.48907C26.8216 7.50452 27.1585 7.52126 27.4419 7.52126C27.7922 7.52126 28.0194 7.49422 28.2253 7.42727C28.359 7.38478 28.486 7.32041 28.5996 7.2393C29.6758 6.46937 30.4899 6.05995 31.2078 5.69816C31.2105 5.69687 31.2131 5.69559 31.2158 5.6943L31.2867 5.65825C32.0032 5.29131 32.681 4.94369 33.459 4.32183C33.6168 4.19565 33.7411 4.03729 33.8253 3.85704C33.8534 3.79524 33.8975 3.70254 34.3373 3.70254M34.3373 2.41504C33.5954 2.41504 32.9337 2.6249 32.6048 3.33174C31.9083 3.88923 31.3188 4.18406 30.5862 4.55872C29.8188 4.94497 28.9459 5.38787 27.8015 6.20672C27.7387 6.22732 27.6063 6.23376 27.4406 6.23376C27.1385 6.23376 26.7254 6.2093 26.4206 6.19514C25.9821 6.17454 25.6185 6.1578 25.3203 6.1578C25.1212 6.1578 24.95 6.16552 24.8043 6.18355C24.3792 6.04321 23.8351 5.88356 23.2402 5.88356C22.7269 5.88356 22.1761 6.00201 21.6307 6.35479C21.489 6.37796 21.3005 6.42302 21.0879 6.46809C20.6347 6.57237 19.7016 6.78481 19.1107 6.78481C18.9329 6.78481 18.7859 6.7655 18.6923 6.71786C17.961 6.3432 17.2525 6.11531 16.5681 5.89901C15.8595 5.67112 15.1991 5.4677 14.5735 5.09175C14.1537 4.8703 13.7179 4.76086 13.2901 4.76086C12.7059 4.76086 12.1378 4.96429 11.6472 5.3647C11.222 5.48959 10.7261 5.53465 10.2194 5.581C9.68868 5.62606 9.14592 5.67241 8.61386 5.80889C8.03367 5.69559 7.43209 5.60932 6.8626 5.60932C6.11263 5.60932 5.41881 5.76125 4.90814 6.20672C4.19961 6.82086 3.96433 7.86631 4.14079 9.35466C4.05791 10.3435 4.58863 11.116 5.04984 11.8099C5.30919 12.1846 5.54581 12.5489 5.68752 12.912C5.21561 13.2867 4.95627 13.8442 4.73168 14.3437C4.54318 14.7531 4.36538 15.1394 4.07128 15.4239C3.91754 15.5939 3.74108 15.7651 3.57531 15.9467C2.80796 16.7192 1.86415 17.6745 2.10078 18.9697C1.10884 20.14 0.259946 21.9026 0.626241 23.5609C0.862861 24.6064 1.55802 25.4252 2.64487 25.9595C2.99913 26.5621 3.62477 27.005 4.36806 27.1646C4.57928 27.2136 4.78782 27.238 4.9937 27.238C5.40945 27.238 5.81051 27.1389 6.17413 26.9496C6.62197 27.1994 7.18879 27.3127 7.73155 27.4273C7.95613 27.4723 8.17939 27.5187 8.39194 27.5638C9.18469 28.474 10.0884 28.7946 11.0001 28.7946C12.3436 28.7946 13.7045 28.0981 14.7526 27.5638L14.8355 27.5187C15.024 27.4736 15.2366 27.4389 15.4732 27.3938C17.0186 27.0977 19.5091 26.6213 19.6147 24.7004C19.8968 24.99 20.2417 25.0338 20.481 25.0338C20.5318 25.0338 20.5786 25.0312 20.6187 25.03C20.6775 25.03 20.7604 25.03 20.7724 25.0184C21.4101 25.8707 22.378 25.9956 23.168 26.087C23.7696 26.1552 24.2776 26.2235 24.561 26.5531C24.5731 26.5647 24.5851 26.5762 24.5958 26.5865C24.5958 26.723 24.5838 26.9277 24.561 27.1659C24.5022 28.3929 25.3752 29.0418 26.0837 29.5529C26.1184 29.5864 26.1666 29.6096 26.2013 29.6444C24.9033 29.9855 24.6439 30.5881 24.4434 31.6902C24.3846 32.043 24.3017 32.4511 24.1359 32.9403C24.0062 33.3382 23.6399 33.6227 23.263 33.9291C22.6253 34.4287 21.7644 35.1111 22.2483 36.4295C22.3312 37.2702 23.0985 38.0775 24.3017 38.6002C24.9233 38.868 25.7147 39.0676 26.5115 39.0676C27.1371 39.0676 27.7641 38.944 28.3149 38.635C28.6678 38.8435 29.0541 38.9517 29.4458 38.9517C29.7359 38.9517 30.0274 38.8925 30.3094 38.7714C31.0888 38.4418 31.6075 37.7028 31.6904 36.8505C31.903 36.5891 32.1155 36.3278 32.3281 36.0664C32.9885 35.2707 33.6729 34.4519 34.1809 33.5313C34.4055 33.5764 34.6288 33.588 34.8186 33.5996C34.8895 33.5996 34.9951 33.6111 35.0659 33.6111C35.7036 34.43 36.6233 34.963 37.7449 35.1793C37.0484 36.2363 37.1313 37.0089 37.368 37.4981C37.769 38.3388 38.8198 38.85 40.3184 38.9646C39.7997 40.6126 40.7782 41.4314 41.2742 41.7262C41.8758 42.0893 42.6672 42.2606 43.4934 42.2606C45.0869 42.2606 46.8448 41.6464 47.8247 40.601C47.8902 40.6048 47.9584 40.6074 48.0293 40.6074C48.6963 40.6074 49.5706 40.386 50.2324 39.4293C50.2751 39.4268 50.3193 39.4268 50.362 39.4268C50.5559 39.4268 50.7511 39.4448 50.9636 39.4641C51.2256 39.486 51.505 39.5066 51.7831 39.5066C52.0959 39.5066 52.4061 39.4796 52.6868 39.3959C54.5036 39.0663 54.811 37.5882 55.0704 36.396L55.0945 36.2827C55.3658 35.3506 55.2362 34.6115 54.7054 34.1004C54.2028 33.6111 53.4087 33.4373 52.513 33.4373C51.4502 33.4373 50.2431 33.6832 49.2057 33.942C49.1108 33.8506 49.0292 33.7605 48.9343 33.6691C49.6776 32.6468 49.9262 32.6468 50.2685 32.6468C50.6454 32.6468 51.1655 32.6468 51.9449 32.1807C52.0612 32.1949 52.1721 32.2013 52.2764 32.2013C53.2483 32.2013 53.7536 31.6245 54.1159 31.2138C54.3284 30.9756 54.4701 30.816 54.6346 30.7477C55.1653 30.7246 55.696 30.3847 55.9447 29.8954H56.0396C56.0864 29.8993 56.1385 29.9019 56.1947 29.9019C56.319 29.9019 56.4594 29.8903 56.6064 29.8504C56.8938 29.9431 57.1813 29.9881 57.462 29.9881C57.9433 29.9881 58.4071 29.8542 58.8242 29.589C59.6263 29.0894 60.1464 28.1573 60.2052 27.1337C60.4886 26.6908 60.8308 26.6342 61.3736 26.5544C61.9284 26.4745 62.6369 26.3728 63.2024 25.7252C63.2371 25.6917 63.2612 25.6454 63.2853 25.6003C64.2064 23.7592 64.701 21.349 63.6155 19.7808C64.2652 19.2349 64.689 18.3028 64.7371 17.3938C64.7839 16.5299 64.4898 15.814 63.9109 15.3248C63.5807 14.6656 62.9671 13.9497 62.1048 13.7682C61.9872 13.7425 61.8535 13.7257 61.7065 13.7257C61.399 13.7257 61.0367 13.803 60.653 14.0412C60.629 14.0296 60.6183 14.018 60.5942 14.0077C60.2052 13.7914 59.7092 13.4965 59.0622 13.4965C58.9633 13.4965 58.8603 13.503 58.7534 13.5184C58.1037 13.2455 57.5021 13.2004 56.9126 13.1657C56.4286 13.1322 55.9808 13.109 55.5196 12.9378C55.1773 12.6648 54.8939 12.2451 54.6225 11.8473C54.1627 11.1546 53.6908 10.449 52.8058 10.2791C52.6828 10.2546 52.5558 10.2417 52.4261 10.2417C51.8513 10.2417 51.2096 10.4941 50.4102 11.0413C50.2618 11.1726 50.1067 11.228 49.9048 11.228C49.6883 11.228 49.4196 11.1649 49.0533 11.0645C48.7124 10.9692 48.3568 10.8739 47.9945 10.8739C47.8809 10.8739 47.7659 10.8829 47.6496 10.9048C47.544 10.7233 47.544 10.5186 47.5319 10.189C47.5199 9.598 47.4972 8.79073 46.4812 8.17788C45.7767 7.03587 44.9117 6.53632 43.6364 6.53632C43.5669 6.53632 43.496 6.53761 43.4238 6.54019C43.365 5.92605 42.9867 5.50632 42.6806 5.17672C42.3851 4.85871 42.1378 4.58576 42.079 4.08621C41.9493 3.49525 41.6191 3.04076 41.1352 2.76781C40.7234 2.53478 40.2301 2.44594 39.7128 2.44594C38.896 2.44594 38.0203 2.6661 37.3118 2.88111C37.0164 2.85794 36.6273 2.7794 36.2143 2.68799C35.6354 2.56439 34.9643 2.4189 34.3467 2.4189L34.3373 2.41504Z" fill="black"/>
</g>
</svg>
