<svg width="43" height="41" viewBox="0 0 43 41" fill="none" xmlns="http://www.w3.org/2000/svg">
<g id="Capa_1" clip-path="url(#clip0_76_207)">
<path id="Vector" d="M21.4923 7.63867C14.1459 7.63867 8.16913 13.3438 8.16913 20.3562C8.16913 27.3687 14.1459 33.0738 21.4923 33.0738C28.8386 33.0738 34.8154 27.3687 34.8154 20.3562C34.8154 13.3438 28.8386 7.63867 21.4923 7.63867ZM21.4923 31.6345C14.9774 31.6345 9.67695 26.575 9.67695 20.3562C9.67695 14.1375 14.9774 9.07796 21.4923 9.07796C28.0072 9.07796 33.3076 14.1375 33.3076 20.3562C33.3076 26.575 28.0072 31.6345 21.4923 31.6345Z" fill="black"/>
<path id="Vector_2" d="M27.7767 16.0361C27.5755 16.0361 27.3861 16.1113 27.2436 16.2473L20.235 22.9373L15.7409 18.6475C15.5984 18.5115 15.409 18.4363 15.2078 18.4363C15.0067 18.4363 14.8173 18.5115 14.6748 18.6475C14.5323 18.7835 14.4543 18.9643 14.4543 19.1563C14.4543 19.3483 14.5323 19.5291 14.6748 19.6652L19.702 24.4646C19.8445 24.6006 20.0339 24.6759 20.235 24.6759C20.4362 24.6759 20.6256 24.6006 20.7681 24.4654L28.3097 17.2666C28.4522 17.1306 28.531 16.9498 28.531 16.7578C28.531 16.5658 28.4522 16.385 28.3097 16.2489C28.1672 16.1129 27.9778 16.0377 27.7767 16.0377V16.0361Z" fill="black"/>
<path id="Vector_3" d="M42.197 24.4777L40.4075 20.339L42.197 16.2004C42.8113 14.7787 42.2624 13.161 40.8886 12.3537C40.7596 12.2801 36.5026 9.84719 36.5026 9.84719L36.3216 9.74399L35.2873 5.65654C34.9085 4.15965 33.4677 3.16039 31.8585 3.2788L26.6485 3.66362L26.4893 3.52921C26.4893 3.52921 23.7226 1.19867 23.6077 1.10187C22.3815 0.109007 20.6022 0.109007 19.3751 1.10347C19.2578 1.20187 16.4952 3.52921 16.4952 3.52921L16.336 3.66362L11.1261 3.2788C9.53697 3.16119 8.09955 4.14525 7.70813 5.61574L6.27155 9.988L6.10644 10.0816C6.10644 10.0816 2.23253 12.2785 2.09759 12.3553C0.727217 13.1634 0.177394 14.7803 0.791755 16.2004L2.5812 20.339L0.791755 24.4777C0.176556 25.901 0.727217 27.5187 2.10261 28.3259C2.14871 28.3523 6.47773 30.8141 6.47773 30.8141L6.65961 30.9173L7.69807 35.0215C8.05345 36.4272 9.35676 37.4088 10.8671 37.4088H10.8855C10.9632 37.4094 11.3348 37.3846 12.0003 37.3344L12.1704 37.3216C12.9055 37.2664 14.0998 37.1776 16.0728 37.0336L16.284 37.0184L16.4433 37.152C16.4433 37.152 19.272 39.521 19.3776 39.6098C19.9727 40.0914 20.7245 40.3562 21.4931 40.3562C22.2617 40.3562 23.0177 40.0898 23.6136 39.6058L26.7022 37.0184L31.8593 37.3992C33.4677 37.5161 34.9093 36.5168 35.2881 35.0215L36.3224 30.9333L36.5035 30.8301C39.5225 29.1051 40.483 28.5571 40.7746 28.3907L40.8652 28.3387C40.8719 28.3339 40.8794 28.3299 40.887 28.3251C42.2615 27.5187 42.813 25.9002 42.1978 24.4769L42.197 24.4777ZM31.975 35.9648L26.501 35.5607C26.299 35.5455 26.097 35.6103 25.9453 35.7375L22.6246 38.5193C22.307 38.7745 21.9046 38.9145 21.4914 38.9145C21.0782 38.9145 20.6759 38.7737 20.3591 38.5193L17.0384 35.7375C16.9009 35.6223 16.7224 35.5583 16.5405 35.5583C16.5212 35.5583 16.502 35.5583 16.4827 35.5607L11.0087 35.9648C10.1421 36.028 9.36598 35.4903 9.16231 34.6839L8.04926 30.2852C8.00232 30.098 7.87576 29.934 7.70226 29.8356L2.88125 27.093C2.14787 26.6578 1.85536 25.7882 2.18475 25.0257L4.09237 20.6126C4.16864 20.4358 4.16864 20.2406 4.09237 20.0638L2.18391 15.6507C1.85452 14.8891 2.14704 14.0202 2.87874 13.585L7.28822 11.0841C7.44831 10.9937 7.56648 10.8505 7.62264 10.6808C8.27556 8.69352 8.65104 7.55345 8.86729 6.89581C9.07515 6.26538 9.14471 6.05336 9.1598 6.00296L9.16231 5.99336C9.36598 5.18771 10.1429 4.64928 11.0087 4.71248L16.5363 5.12051C16.7383 5.13571 16.9411 5.0709 17.0937 4.9421L20.3599 2.19073C21.0154 1.6651 21.9667 1.6651 22.6213 2.18993L25.8892 4.9429C26.0417 5.07091 26.2454 5.13571 26.4465 5.12051L31.9741 4.71248C32.8391 4.64688 33.6169 5.18691 33.8206 5.99336L34.9286 10.3744C34.9755 10.5608 35.1021 10.7248 35.2739 10.8233L40.1033 13.5826C40.8375 14.0178 41.1317 14.8875 40.8015 15.6507L38.8938 20.0638C38.8176 20.2406 38.8176 20.4358 38.8938 20.6126L40.8015 25.0257C41.1317 25.7889 40.8375 26.6586 40.1033 27.0938L35.2739 29.8532C35.1012 29.9516 34.9755 30.1148 34.9286 30.302L33.8206 34.6831C33.6169 35.4887 32.8399 36.0264 31.9741 35.9632L31.975 35.9648Z" fill="black"/>
</g>
<defs>
<clipPath id="clip0_76_207">
<rect width="41.9064" height="40" fill="white" transform="translate(0.541138 0.356445)"/>
</clipPath>
</defs>
</svg>
