<svg width="150" height="150" viewBox="0 0 150 150" fill="none" xmlns="http://www.w3.org/2000/svg">
<g clip-path="url(#clip0_58_860)">
<path d="M59.7993 27.135L57.6765 18.8342L61.1385 17.95C62.0333 17.7201 62.7788 17.7231 63.375 17.9591C63.9762 18.1934 64.364 18.6549 64.5385 19.3437C64.6518 19.7946 64.6434 20.2037 64.5113 20.5659C64.3792 20.9282 64.1436 21.2367 63.8078 21.4844C63.4719 21.7322 63.0694 21.9188 62.6036 22.0375L62.7553 21.7472C63.3251 21.6034 63.8342 21.5597 64.2795 21.6232C64.7248 21.6866 65.0926 21.8506 65.3812 22.1102C65.6716 22.3747 65.8795 22.7416 65.9999 23.2125C66.1762 23.9063 66.0615 24.5107 65.656 25.0255C65.2504 25.5403 64.5299 25.929 63.5043 26.188L59.8043 27.1333L59.7993 27.135ZM60.2711 26.4559L63.3644 25.6618C64.1603 25.4553 64.7344 25.1633 65.0867 24.7857C65.4389 24.408 65.5319 23.9185 65.3806 23.3117C65.2279 22.7168 64.9087 22.3383 64.4164 22.173C63.924 22.0076 63.2833 22.0298 62.4856 22.2312L59.3185 23.04L59.1855 22.5171L62.0877 21.7732C62.8066 21.5882 63.3287 21.3088 63.6523 20.9299C63.976 20.5511 64.0659 20.0852 63.9273 19.5304C63.7872 18.9874 63.4851 18.6254 63.0179 18.4513C62.5506 18.2771 61.9601 18.2817 61.2412 18.4667L58.4059 19.1926L60.2626 26.4476L60.2711 26.4559Z" fill="white"/>
<path d="M68.4524 25.2152L67.6585 16.6841L68.2801 16.6236L69.0227 24.5917L73.9321 24.135L73.9833 24.6979L68.4524 25.2152Z" fill="white"/>
<path d="M73.8444 24.6399L78.2873 16.3267L78.9088 16.3621L82.3301 25.1483L81.6564 25.1088L78.4335 16.7266L78.7047 16.744L74.5131 24.6812L73.8394 24.6417L73.8444 24.6399ZM75.4321 22.3221L75.6694 21.81L80.7847 22.1156L80.9617 22.6513L75.4253 22.3188L75.4321 22.3221Z" fill="white"/>
<path d="M86.9273 26.2901C86.3075 26.147 85.7568 25.9119 85.2785 25.5781C84.7952 25.246 84.4067 24.8467 84.1044 24.372C83.804 23.9023 83.6054 23.3856 83.5037 22.8234C83.407 22.2596 83.4278 21.677 83.5675 21.0638C83.7073 20.4506 83.9425 19.9167 84.2748 19.4502C84.6071 18.9837 85.0116 18.6103 85.4948 18.3163C85.9729 18.0242 86.5032 17.8321 87.0756 17.7437C87.6479 17.6553 88.244 17.6827 88.8622 17.8207C89.4516 17.9576 89.9802 18.1778 90.4497 18.4866C90.9192 18.7954 91.2941 19.1881 91.5677 19.6616L91.0948 19.9688C90.8185 19.5358 90.4781 19.1929 90.0835 18.9368C89.6839 18.6825 89.2417 18.4995 88.757 18.3879C88.2233 18.2653 87.708 18.2434 87.2112 18.3221C86.7144 18.4009 86.2544 18.5682 85.843 18.8256C85.4265 19.0848 85.0785 19.4102 84.7873 19.8172C84.4994 20.2173 84.2916 20.6852 84.1706 21.2071C84.0513 21.7341 84.0309 22.2377 84.118 22.726C84.205 23.2143 84.3739 23.6625 84.6381 24.0773C84.9023 24.492 85.2378 24.8366 85.6547 25.1243C86.0717 25.4121 86.5445 25.6181 87.0782 25.7407C87.563 25.8523 88.0413 25.8816 88.5116 25.8234C88.9818 25.7653 89.4368 25.5997 89.8765 25.3267L90.1705 25.81C89.7144 26.1169 89.211 26.3052 88.6519 26.3832C88.0929 26.4613 87.5186 26.4319 86.9359 26.2984L86.9273 26.2901Z" fill="white"/>
<path d="M91.5496 27.5191L94.8177 19.6019L95.397 19.8382L92.1289 27.7554L91.5496 27.5191ZM92.8748 25.7221L93.1522 24.9872L100.339 21.88L101.038 22.1699L96.0027 24.3688L95.5317 24.5851L92.8766 25.7271L92.8748 25.7221ZM97.3078 29.8943L95.427 24.3512L95.9966 24.0945L98.0125 30.1824L97.3129 29.8925L97.3078 29.8943Z" fill="white"/>
<path d="M102.22 32.7812L101.706 32.4261L106.599 25.3929L111.301 28.6638L110.979 29.1268L106.79 26.2111L102.22 32.7812ZM104.639 29.1725L108.447 31.8218L108.124 32.2848L104.317 29.6355L104.639 29.1725Z" fill="white"/>
<path d="M107.668 36.7772L113.608 30.6056L115.818 32.7389C116.338 33.2387 116.698 33.7494 116.914 34.266C117.129 34.7825 117.181 35.2999 117.087 35.8013C116.992 36.3026 116.729 36.7731 116.304 37.2158C115.89 37.6433 115.434 37.9166 114.939 38.034C114.445 38.1514 113.929 38.1127 113.394 37.9228C112.864 37.7311 112.339 37.3913 111.819 36.8915L109.857 34.9982L110.262 34.9798L108.114 37.2126L107.663 36.779L107.668 36.7772ZM111.95 40.9064L112.503 37.1194L113.014 37.6109L112.462 41.3979L111.95 40.9064ZM110.239 35.0105L110.242 34.6032L112.205 36.4965C112.87 37.137 113.513 37.4749 114.141 37.5135C114.77 37.5521 115.338 37.3073 115.844 36.774C116.36 36.2372 116.586 35.6613 116.521 35.0414C116.455 34.4215 116.091 33.7879 115.426 33.1474L113.459 31.2559L113.872 31.229L110.232 35.0073L110.239 35.0105Z" fill="white"/>
<path d="M113.601 42.9382L120.241 37.5242L120.636 38.0058L113.995 43.4198L113.601 42.9382Z" fill="white"/>
<path d="M115.737 45.5028L123.036 41.0138L124.813 43.9031C125.287 44.6729 125.548 45.4495 125.595 46.2228C125.641 46.9962 125.488 47.7156 125.14 48.3793C124.793 49.0429 124.263 49.59 123.553 50.0256C122.844 50.4613 122.117 50.6885 121.365 50.699C120.613 50.7095 119.905 50.5241 119.237 50.1328C118.565 49.7432 117.993 49.1601 117.519 48.3903L115.742 45.5011L115.737 45.5028ZM116.542 45.7388L117.965 48.0532C118.387 48.7397 118.89 49.2566 119.473 49.5988C120.055 49.9411 120.67 50.1028 121.32 50.0889C121.969 50.0749 122.598 49.8762 123.215 49.496C123.831 49.1157 124.296 48.642 124.602 48.0666C124.909 47.4961 125.04 46.8747 125 46.2005C124.961 45.5263 124.727 44.8469 124.304 44.1554L122.881 41.841L116.542 45.7388Z" fill="white"/>
<path d="M120.005 52.5088L129.416 53.0526L129.643 53.6329L123.104 60.4268L122.861 59.8014L129.117 53.3554L129.217 53.6078L120.254 53.1375L120.011 52.512L120.005 52.5088ZM122.774 52.9737L123.339 52.978L125.209 57.7522L124.798 58.1392L122.775 52.9787L122.774 52.9737Z" fill="white"/>
<path d="M123.658 63.1588L126.687 62.4549L126.324 62.6897L131.218 57.8561L131.374 58.5233L126.927 62.9121L126.849 62.5785L132.773 64.5573L132.921 65.1876L126.399 63.0133L126.824 63.067L123.795 63.7708L123.653 63.1605L123.658 63.1588Z" fill="white"/>
<path d="M124.357 83.3874L132.681 85.4079L131.837 88.88C131.621 89.7737 131.267 90.4341 130.782 90.8526C130.293 91.2728 129.704 91.3952 129.015 91.2313C128.564 91.1192 128.207 90.923 127.954 90.6343C127.7 90.3456 127.536 89.9915 127.47 89.5803C127.41 89.1673 127.429 88.7261 127.546 88.2563L127.732 88.5293C127.595 89.102 127.393 89.5681 127.126 89.9325C126.859 90.297 126.545 90.5428 126.176 90.6784C125.804 90.8089 125.385 90.8208 124.911 90.7056C124.213 90.5335 123.734 90.1492 123.473 89.5526C123.211 88.9511 123.206 88.135 123.454 87.1061L124.354 83.3942L124.357 83.3874ZM124.734 84.1234L123.982 87.2304C123.79 88.0312 123.779 88.6726 123.95 89.1595C124.121 89.6465 124.508 89.9616 125.113 90.11C125.706 90.2568 126.192 90.148 126.57 89.7952C126.948 89.4424 127.23 88.8639 127.422 88.0631L128.19 84.8885L128.713 85.0147L128.007 87.9308C127.832 88.6522 127.837 89.2428 128.017 89.7094C128.197 90.171 128.567 90.4695 129.123 90.6069C129.672 90.741 130.128 90.6428 130.503 90.3136C130.878 89.9844 131.15 89.4599 131.325 88.7385L132.012 85.8967L124.733 84.1352L124.734 84.1234Z" fill="white"/>
<path d="M121.988 91.9366L129.896 95.2311L129.653 95.8072L122.267 92.7298L120.37 97.2824L119.849 97.0654L121.983 91.9384L121.988 91.9366Z" fill="white"/>
<path d="M119.972 96.9657L125.25 104.778L124.925 105.315L115.559 104.242L115.91 103.667L124.827 104.729L124.687 104.958L119.618 97.547L119.968 96.9725L119.972 96.9657ZM121.284 99.4485L121.628 99.8973L118.969 104.284L118.41 104.187L121.284 99.4485Z" fill="white"/>
<path d="M112.418 107.772C112.834 107.287 113.301 106.914 113.814 106.643C114.333 106.371 114.871 106.216 115.429 106.166C115.987 106.117 116.535 106.184 117.081 106.358C117.622 106.534 118.132 106.829 118.608 107.237C119.084 107.645 119.45 108.109 119.707 108.616C119.96 109.125 120.108 109.66 120.143 110.223C120.177 110.786 120.1 111.337 119.911 111.889C119.721 112.441 119.421 112.952 119.01 113.435C118.619 113.894 118.172 114.26 117.68 114.529C117.19 114.803 116.671 114.946 116.123 114.975L116.072 114.412C116.581 114.368 117.044 114.228 117.453 113.994C117.861 113.76 118.228 113.456 118.557 113.076C118.914 112.663 119.174 112.216 119.338 111.735C119.501 111.255 119.564 110.776 119.535 110.29C119.5 109.806 119.374 109.337 119.152 108.896C118.929 108.455 118.615 108.058 118.208 107.705C117.802 107.351 117.359 107.101 116.889 106.95C116.418 106.8 115.941 106.742 115.454 106.783C114.967 106.825 114.501 106.96 114.052 107.192C113.603 107.423 113.205 107.749 112.843 108.164C112.519 108.543 112.274 108.95 112.101 109.389C111.935 109.831 111.867 110.312 111.907 110.828L111.344 110.862C111.288 110.318 111.352 109.777 111.545 109.252C111.737 108.722 112.031 108.229 112.423 107.77L112.418 107.772Z" fill="white"/>
<path d="M104.389 115.27L110.167 116.194L110.127 116.817L103.805 115.757L104.389 115.27ZM110.147 113.296L110.668 113.88L110.064 121.69L109.479 122.178L109.888 116.698L109.92 116.18L110.154 113.3L110.147 113.296ZM109.175 111.286L114.649 117.873L114.169 118.273L108.696 111.686L109.175 111.286Z" fill="white"/>
<path d="M101.591 122.085L97.4644 124.207L97.2088 123.705L101.335 121.583L101.591 122.085ZM99.5396 118.255L100.094 117.97L104.007 125.59L98.9162 128.209L98.6607 127.706L103.198 125.373L99.5396 118.255Z" fill="white"/>
<path d="M87.7986 123.053L90.8879 125.311L90.2151 125.531L87.1308 123.271L87.8037 123.051L87.7986 123.053ZM93.4508 121.196L96.1262 129.336L93.2089 130.294C92.526 130.517 91.9065 130.599 91.347 130.548C90.7857 130.491 90.3081 130.304 89.9125 129.98C89.5168 129.657 89.2184 129.209 89.0305 128.627C88.8429 128.061 88.814 127.529 88.9457 127.038C89.0773 126.546 89.3461 126.107 89.7639 125.723C90.1766 125.341 90.7303 125.04 91.4132 124.816L94.0075 123.967L93.8318 124.333L92.865 121.39L93.4558 121.194L93.4508 121.196ZM93.8127 124.295L94.1725 124.484L91.5782 125.334C90.7028 125.619 90.1038 126.033 89.7743 126.571C89.4499 127.108 89.4011 127.724 89.6296 128.422C89.8598 129.125 90.268 129.596 90.8473 129.832C91.4266 130.069 92.1547 130.038 93.0301 129.753L95.6244 128.903L95.4522 129.28L93.8109 124.29L93.8127 124.295Z" fill="white"/>
<path d="M85.2275 123.567L86.9211 131.962L86.3106 132.087L84.617 123.691L85.2275 123.567Z" fill="white"/>
<path d="M81.9676 124.256L82.5362 132.804L79.1527 133.029C78.2483 133.088 77.4419 132.96 76.7366 132.638C76.0314 132.316 75.4668 131.849 75.0411 131.232C74.6204 130.612 74.3831 129.889 74.3275 129.057C74.2718 128.225 74.4144 127.475 74.7502 126.81C75.0842 126.14 75.5836 125.604 76.2449 125.191C76.9062 124.778 77.6865 124.543 78.5908 124.484L81.9744 124.259L81.9676 124.256ZM81.3834 124.856L78.6722 125.037C77.867 125.089 77.1788 125.297 76.6041 125.651C76.0311 126.01 75.6029 126.477 75.3094 127.054C75.0227 127.634 74.9021 128.285 74.9476 129.008C74.993 129.731 75.2036 130.362 75.5674 130.9C75.9312 131.438 76.4174 131.842 77.0345 132.121C77.6515 132.401 78.3618 132.512 79.1669 132.46L81.8782 132.28L81.3834 124.856Z" fill="white"/>
<path d="M73.7896 124.768L68.912 132.839L68.29 132.77L65.3337 123.815L66.0029 123.89L68.7809 132.434L68.5112 132.405L73.1103 124.697L73.7796 124.772L73.7896 124.768ZM72.0829 127.004L71.8184 127.503L66.7255 126.924L66.5786 126.378L72.0879 127.002L72.0829 127.004Z" fill="white"/>
<path d="M62.6788 123.016L61.8798 126.022L61.8426 125.595L63.8146 132.183L63.1555 132.009L61.3616 126.023L61.6911 126.11L57.1661 130.42L56.5374 130.252L61.5198 125.511L61.2715 125.863L62.0705 122.858L62.6738 123.018L62.6788 123.016Z" fill="white"/>
<path d="M44.447 114.163L38.7837 120.593L36.1033 118.23C35.4102 117.622 34.9946 117.001 34.848 116.375C34.7015 115.75 34.8687 115.167 35.3362 114.636C35.6418 114.286 35.9865 114.063 36.3602 113.971C36.734 113.879 37.1197 113.902 37.5173 114.038C37.915 114.175 38.294 114.402 38.6542 114.721L38.3284 114.757C37.8879 114.37 37.5685 113.975 37.3701 113.571C37.1716 113.167 37.0995 112.769 37.1504 112.385C37.2064 111.998 37.3937 111.617 37.7158 111.25C38.1916 110.71 38.7547 110.467 39.4084 110.514C40.062 110.56 40.7867 110.937 41.5806 111.64L44.447 114.163ZM43.6207 114.154L41.2254 112.041C40.6057 111.497 40.0453 111.187 39.5342 111.113C39.0232 111.038 38.562 111.234 38.1556 111.699C37.7525 112.156 37.6173 112.638 37.7566 113.131C37.8977 113.628 38.273 114.15 38.8927 114.694L41.3443 116.855L40.9891 117.257L38.7406 115.272C38.184 114.78 37.6596 114.507 37.1606 114.451C36.6667 114.394 36.2305 114.581 35.8522 115.013C35.4822 115.436 35.3533 115.887 35.4672 116.372C35.5862 116.855 35.9223 117.346 36.4771 117.833L38.6743 119.768L43.6239 114.148L43.6207 114.154Z" fill="white"/>
<path d="M37.9941 108.095L31.3911 113.552L30.9962 113.071L37.1676 107.974L34.0262 104.171L34.4578 103.811L37.9991 108.093L37.9941 108.095Z" fill="white"/>
<path d="M34.4872 103.958L25.1107 104.958L24.7924 104.422L30.1309 96.6509L30.4752 97.2293L25.3608 104.611L25.2224 104.378L34.1411 103.374L34.4854 103.953L34.4872 103.958ZM31.677 103.953L31.1165 104.043L28.4902 99.6361L28.8346 99.1879L31.6752 103.948L31.677 103.953Z" fill="white"/>
<path d="M28.4868 92.2153C28.7187 92.8106 28.8342 93.3961 28.8303 93.9784C28.8263 94.5607 28.7159 95.1128 28.4971 95.6297C28.2784 96.1465 27.9644 96.6009 27.557 96.998C27.1495 97.395 26.6498 97.706 26.0663 97.9393C25.4811 98.1676 24.904 98.2746 24.335 98.2603C23.766 98.246 23.2223 98.1269 22.7102 97.8895C22.1999 97.6572 21.7453 97.3263 21.3447 96.9087C20.9474 96.4843 20.6346 95.9795 20.3977 95.3859C20.1782 94.8257 20.0647 94.2621 20.0539 93.7019C20.0431 93.1417 20.1556 92.6115 20.3931 92.1162L20.9099 92.335C20.709 92.8061 20.6157 93.2788 20.6302 93.7531C20.6447 94.2275 20.7415 94.6954 20.9257 95.1552C21.1275 95.6652 21.3988 96.1001 21.7431 96.4697C22.0873 96.8394 22.4857 97.1224 22.9281 97.3222C23.3756 97.5203 23.8468 97.6254 24.3417 97.6375C24.8366 97.6497 25.3349 97.5591 25.8348 97.3608C26.3347 97.1625 26.7644 96.893 27.1222 96.5473C27.48 96.2015 27.7529 95.8067 27.9441 95.3559C28.1371 94.9102 28.2336 94.4307 28.2371 93.9275C28.2407 93.4242 28.1416 92.9176 27.9447 92.4058C27.7656 91.9443 27.5199 91.5343 27.2078 91.1758C26.8957 90.8174 26.5041 90.5377 26.0295 90.3266L26.2618 89.8163C26.7733 90.02 27.2142 90.3276 27.5929 90.7472C27.9699 91.1618 28.2724 91.6533 28.4918 92.2135L28.4868 92.2153Z" fill="white"/>
<path d="M26.8868 87.696L18.5072 89.4629L18.3778 88.8541L26.7574 87.0873L26.8868 87.696ZM24.6543 87.6179L23.8917 87.807L17.2677 83.6266L17.1093 82.887L21.7675 85.8069L22.2111 86.074L24.651 87.6246L24.6543 87.6179ZM25.596 81.6014L22.0815 86.2831L21.5495 85.9568L25.4357 80.8569L25.5892 81.5982L25.596 81.6014Z" fill="white"/>
<path d="M25.2242 75.9395L25.2175 76.5623L16.6528 76.4708L16.7091 70.7431L17.2695 70.7491L17.2182 75.8491L25.2207 75.9294L25.2242 75.9395ZM20.8799 75.9663L20.9304 71.3292L21.4909 71.3352L21.4454 75.9706L20.8799 75.9663Z" fill="white"/>
<path d="M25.4603 69.1663L17.0215 67.7164L17.5425 64.6906C17.6655 63.9818 17.8814 63.3926 18.1919 62.9282C18.5073 62.4619 18.8973 62.1274 19.3618 61.9247C19.8262 61.7219 20.3673 61.6727 20.968 61.7774C21.5552 61.8756 22.0351 62.1017 22.411 62.449C22.7868 62.7963 23.0448 63.2414 23.1867 63.7894C23.3286 64.3374 23.3387 64.9599 23.2157 65.6687L22.7514 68.3588L22.5122 68.0311L25.5614 68.5555L25.4553 69.1681L25.4603 69.1663ZM22.5526 68.0338L22.2147 68.2598L22.679 65.5698C22.8341 64.6635 22.7533 63.9362 22.4349 63.3994C22.1147 62.8577 21.5928 62.5279 20.8672 62.4051C20.1349 62.279 19.5297 62.4184 19.0499 62.8183C18.5701 63.2182 18.2544 63.8763 18.0993 64.7825L17.635 67.4726L17.379 67.1452L22.5526 68.0338ZM26.4685 63.307L23.0276 64.9734L23.1474 64.2714L26.5883 62.605L26.4685 63.307Z" fill="white"/>
<path d="M27.2217 60.7977L19.014 58.3529L19.1927 57.7542L27.4004 60.1991L27.2217 60.7977Z" fill="white"/>
<path d="M28.1388 57.5989L20.316 54.0994L21.6992 51.0074C22.0676 50.1785 22.5619 49.5309 23.1784 49.0548C23.7949 48.5786 24.4702 48.3017 25.2125 48.2156C25.9566 48.1346 26.7058 48.2604 27.4686 48.6014C28.2263 48.9442 28.8263 49.4157 29.2603 50.0246C29.6943 50.6335 29.9378 51.3262 29.9909 52.1029C30.0489 52.8777 29.8904 53.678 29.5219 54.5069L28.1388 57.5989ZM27.88 56.7987L28.9871 54.317C29.315 53.5813 29.4566 52.8773 29.4102 52.1998C29.3638 51.5224 29.1488 50.9268 28.7767 50.3976C28.4046 49.8685 27.878 49.4614 27.2152 49.1642C26.5525 48.867 25.8977 48.7531 25.2578 48.8258C24.6161 48.8934 24.0262 49.1403 23.4944 49.5528C22.9627 49.9654 22.5279 50.5412 22.2 51.2769L21.0929 53.7586L27.885 56.797L27.88 56.7987Z" fill="white"/>
<path d="M31.5184 50.1278L26.6548 42.0516L27.0031 41.5343L36.3036 43.0931L35.924 43.6495L27.07 42.1256L27.2228 41.9027L31.8963 49.5663L31.5167 50.1228L31.5184 50.1278ZM30.3392 47.5755L30.022 47.1061L32.9075 42.8655L33.4581 42.9878L30.3375 47.5705L30.3392 47.5755Z" fill="white"/>
<path d="M38.25 41.1062L35.9642 38.9994L36.3606 39.1646L29.6133 37.842L30.0796 37.3397L36.2091 38.541L35.9759 38.7922L34.2742 32.78L34.7157 32.3033L36.5905 38.9202L36.3941 38.538L38.68 40.6448L38.255 41.1044L38.25 41.1062Z" fill="white"/>
</g>
<defs>
<clipPath id="clip0_58_860">
<rect width="117" height="117" fill="white" transform="translate(0.542175 38.918) rotate(-19.3679)"/>
</clipPath>
</defs>
</svg>
