<svg width="41" height="40" viewBox="0 0 41 40" fill="none" xmlns="http://www.w3.org/2000/svg">
<g id="Layer_1" clip-path="url(#clip0_76_193)">
<path id="Vector" d="M5.37537 12.3545L11.1611 11.5219C12.8314 11.2812 14.2755 10.2411 15.0237 8.73917L17.6087 3.54869C18.1755 2.3582 19.3815 1.61578 20.7541 1.61578C22.1267 1.61578 23.3327 2.35739 23.9011 3.55194L26.4845 8.73836C27.2327 10.2403 28.6768 11.2803 30.3471 11.521L36.1328 12.3537C37.96 12.6164 38.944 14.0606 39.1091 15.3747C39.1652 15.8195 39.5717 16.1366 40.0182 16.0805C40.463 16.0244 40.7793 15.617 40.724 15.1722C40.4337 12.8571 38.6821 11.077 36.3654 10.7436L30.5797 9.91096C29.438 9.7467 28.4516 9.0368 27.9417 8.01301L25.3542 2.81765C24.5069 1.07908 22.7447 0 20.7533 0C18.7618 0 17.0005 1.07745 16.1572 2.81114L13.5665 8.01301C13.0566 9.0368 12.0702 9.74588 10.9285 9.91096L5.1428 10.7436C3.20663 11.003 1.6242 12.3391 1.01107 14.2305C0.403626 16.1057 0.896409 18.0964 2.29588 19.4259L6.48698 23.4747C7.31072 24.2708 7.68641 25.4149 7.49206 26.5371L6.50161 32.2594C6.22513 33.6825 6.63335 35.1714 7.62135 36.3497C8.63131 37.554 10.0601 38.2322 11.5408 38.207H11.553C12.3776 38.207 13.2046 38.0028 13.9454 37.6166L19.1204 34.9209C19.7287 34.6038 20.3345 34.4468 20.8777 34.4672L20.9175 34.4696C21.0054 34.4777 21.0704 34.4924 21.4217 34.5802L21.4453 34.5859C21.4933 34.5981 21.5331 34.6078 21.5535 34.6127C21.7649 34.6623 21.9828 34.6257 22.1674 34.5111C22.352 34.3964 22.4805 34.2159 22.5293 34.0045C22.5789 33.793 22.5423 33.5743 22.4276 33.3905C22.313 33.2059 22.1332 33.0775 21.921 33.0287L21.8779 33.0181C21.255 32.8636 21.0054 32.8449 20.9436 32.8424C20.1125 32.8124 19.2237 33.0327 18.3682 33.4783L13.1997 36.1716C12.0288 36.8115 10.6057 36.7066 9.48921 35.8951C8.39468 35.1006 7.86612 33.8061 8.10926 32.5172L9.09645 26.8152C9.38269 25.1612 8.83054 23.4755 7.61891 22.3053L3.4327 18.2614C2.46339 17.3255 2.13162 16.0049 2.54308 14.729C2.96024 13.4377 4.01899 12.5497 5.37537 12.3545Z" fill="black"/>
<path id="Vector_2" d="M33.621 18.6084C30.165 18.7596 28.5915 21.3276 28.5915 23.6517C28.5915 25.9757 30.1658 28.5438 33.621 28.6942C36.3931 28.6852 38.6472 26.4238 38.6472 23.6517C38.6472 20.8796 36.3931 18.6182 33.621 18.6084ZM33.6039 27.067H33.5738C31.3579 26.9743 30.2008 25.2789 30.2008 23.6509C30.2008 22.0229 31.3579 20.3274 33.5697 20.2356H33.599C35.4872 20.2356 37.0192 21.7668 37.0192 23.6509C37.0192 25.535 35.4872 27.067 33.6031 27.067H33.6039Z" fill="black"/>
<path id="Vector_3" d="M33.9934 32.4443H32.8907C29.1583 32.4443 26.1219 35.4685 26.1219 39.1864C26.1219 39.6352 26.487 39.9995 26.9351 39.9995C27.3831 39.9995 27.7482 39.6344 27.7482 39.1864C27.7482 36.3663 30.0552 34.0715 32.8899 34.0715H33.9926C36.8281 34.0715 39.1343 36.3663 39.1343 39.1864C39.1343 39.6352 39.4994 39.9995 39.9475 39.9995C40.3955 39.9995 40.7606 39.6344 40.7606 39.1864C40.7606 35.4685 37.7242 32.4443 33.9918 32.4443H33.9934Z" fill="black"/>
</g>
<defs>
<clipPath id="clip0_76_193">
<rect width="40.0065" height="40" fill="white" transform="translate(0.755737)"/>
</clipPath>
</defs>
</svg>
