<svg width="18" height="19" viewBox="0 0 18 19" fill="none" xmlns="http://www.w3.org/2000/svg">
<g clip-path="url(#clip0_76_133)">
<path d="M12.6753 18.561C12.0112 18.566 11.4114 18.4933 10.8223 18.3363C9.701 18.0375 8.69519 17.5018 7.75406 16.8351C6.61487 16.0279 5.61712 15.0661 4.69009 14.0272C3.85393 13.0903 3.08225 12.1042 2.42057 11.0352C1.95273 10.279 1.54935 9.49038 1.25075 8.6516C0.912866 7.70281 0.714202 6.72743 0.766991 5.71638C0.845973 4.20545 1.3926 2.89419 2.5062 1.84989C2.89426 1.48601 3.30489 1.14289 3.72982 0.822928C4.22849 0.44716 4.76484 0.485442 5.25203 0.880351C5.55768 1.12798 5.80712 1.42597 6.02331 1.75056C6.41097 2.33325 6.81011 2.9099 7.11657 3.54196C7.29427 3.90846 7.42363 4.28947 7.4335 4.70452C7.44619 5.23382 7.23262 5.65916 6.85343 6.01115C6.47 6.36717 6.05998 6.69015 5.6417 7.00487C5.19441 7.34135 5.05881 7.80899 5.14766 8.353C5.24276 8.93489 5.50973 9.44484 5.82666 9.92679C6.57135 11.0587 7.45385 12.0744 8.47719 12.9642C8.86243 13.2992 9.2795 13.5898 9.75943 13.7806C10.413 14.0405 10.979 13.8985 11.4674 13.3895C11.7892 13.0542 12.1376 12.7415 12.4952 12.4441C13.0247 12.0035 13.6247 11.9463 14.2612 12.1866C14.6605 12.3376 15.018 12.5638 15.3418 12.8348C15.8453 13.2563 16.3387 13.6909 16.8233 14.1344C17.063 14.3538 17.2579 14.6163 17.3993 14.9141C17.629 15.3979 17.5643 15.843 17.2067 16.2337C17.0219 16.4355 16.8088 16.612 16.6028 16.7938C16.3266 17.0376 16.0582 17.2931 15.7631 17.5121C15.02 18.0639 14.18 18.3875 13.262 18.5048C13.0495 18.532 12.8353 18.5459 12.6755 18.561H12.6753Z" fill="white"/>
</g>
<defs>
<clipPath id="clip0_76_133">
<rect width="16.775" height="18" fill="white" transform="translate(0.758545 0.561523)"/>
</clipPath>
</defs>
</svg>
