<svg width="113" height="31" viewBox="0 0 113 31" fill="none" xmlns="http://www.w3.org/2000/svg">
<g clip-path="url(#clip0_46_210)">
<path d="M0.480395 1.76351H10.929V30.3203H15.0273V1.76351H25.4759L25.9413 0.320312H0L0.480395 1.76351Z" fill="white"/>
<path d="M39.2423 13.4009L51.042 0.412109H49.0603L47.9644 1.64036L33.7778 17.2391V0.412109H32.0814H32.0964H29.6644L29.6494 2.03954V30.2893H33.7778V19.6496L36.495 16.4561L37.2006 17.2698L48.8802 30.1972L48.9853 30.32H54.5248L39.2423 13.4009Z" fill="white"/>
<path d="M70.3178 18.8066L67.3454 26.3297H72.7798L74.251 30.1526H76.2927L71.9391 18.8066H70.3178ZM68.5764 25.6695L70.573 20.5415L72.5246 25.6541H68.5613L68.5764 25.6695Z" fill="white"/>
<path d="M62.061 18.8213H60.1845V30.1826H69.357L69.9425 29.2614H62.061V18.8213Z" fill="white"/>
<path d="M83.8739 23.6419C83.6638 23.5652 83.4686 23.4884 83.2735 23.427C81.6822 22.8589 80.9165 22.5365 80.7214 21.6767C80.6613 21.4004 80.7063 20.817 81.0817 20.3257C81.3669 19.9572 81.9524 19.512 83.1233 19.512C84.2943 19.512 85.3301 20.0954 86.0507 21.1701L86.1858 21.3697L87.3868 20.9091L87.1466 20.5713C86.2609 19.3431 84.8648 18.6982 83.0933 18.6982C80.346 18.6982 79.07 20.5253 79.07 21.7535C79.07 23.8262 81.0516 24.5478 82.658 25.1312L83.1083 25.3001C85.0149 26.0063 86.0057 26.4209 86.0057 27.4649C86.0057 28.5703 84.9999 29.3994 83.6638 29.3994C81.9374 29.3994 80.8865 28.7392 80.5262 27.4495L80.4511 27.1732L79.1751 27.4342L79.2802 27.7719C79.7756 29.4147 81.2318 30.3206 83.3936 30.3206C85.5553 30.3206 87.6871 29.5222 87.6871 27.3113C87.6871 25.3001 85.5253 24.2561 83.904 23.6573L83.8739 23.6419Z" fill="white"/>
<path d="M91.6803 18.8213V30.1672H98.8262L99.5318 29.2154H93.5268V24.1488H98.7361L99.4567 23.2276H93.5268V19.7425H98.8112L99.6969 18.8213H91.6803Z" fill="white"/>
<path d="M110.07 26.9884L110.251 26.8963C111.557 26.1747 112.277 24.8697 112.277 23.2269V23.1041C112.277 20.8318 110.01 18.8359 107.428 18.8359H103.03V30.1665H104.906V27.4951H107.428C107.518 27.4951 107.623 27.4951 107.728 27.4951C107.999 27.4951 108.254 27.6333 108.389 27.8636L109.83 30.1665H112.142L110.085 26.9884H110.07ZM107.413 26.7121H104.891V19.6036H107.413C109.185 19.6036 110.386 21.0007 110.386 23.0888V23.2269C110.386 25.315 109.2 26.7121 107.413 26.7121Z" fill="white"/>
</g>
<defs>
<clipPath id="clip0_46_210">
<rect width="112.277" height="30" fill="white" transform="translate(0 0.320312)"/>
</clipPath>
</defs>
</svg>
